<svg xmlns="http://www.w3.org/2000/svg" xml:space="preserve" id="svg1" width="160" height="160" fill="currentColor" class="bi bi-file-earmark" version="1.1">
  <style>
    #background { fill: #f2f2f2; }
    #doc {fill: #636466;}
    #logo path { fill: #636466; }

    @media (prefers-color-scheme: dark) {
      #background { fill: #636466; }
      #doc {fill: #f2f2f2;}
      #logo path { fill: #f2f2f2; }
    }
  </style>
  <path id="background" d="M40 0C28.954 0 20 8.954 20 20v120c0 11.046 8.954 20 20 20h80c11.046 0 20-8.954 20-20V45L95 0Z"/>
  <path id="doc" d="M140 45v95a20 20 0 0 1-20 20H40a20 20 0 0 1-20-20V20A20 20 0 0 1 40 0h55zm-30 0a15 15 0 0 1-15-15V10H40a10 10 0 0 0-10 10v120a10 10 0 0 0 10 10h80a10 10 0 0 0 10-10V45Z"/>
  <g id="logo" transform="matrix(1.25862 0 0 1.25862 10.618 54.345)">
    <g id="ymca">
      <path id="path1-5" d="m55.335 62.485 1.604 2.684 1.52.862a.31.31 0 0 1 .133.476l-.172.314c-.136.229-.26.295-.505.157l-1.465-.834-3.327-.038a.537.537 0 0 1-.248-.047.277.277 0 0 1-.067-.401l.223-.376a.389.389 0 0 1 .407-.23l2.281.045-1.176-1.953a.378.378 0 0 1 0-.461l.178-.313a.265.265 0 0 1 .164-.158.27.27 0 0 1 .227.026.75.75 0 0 1 .223.247z"/>
      <path id="path2" d="m62.447 59.921-.169.292a.321.321 0 0 1-.48.125l-2.98-1.454c.123.144.301.338.438.492.534.627 1.112 1.254 1.452 1.683.152.14.176.37.054.536l-.108.182a.402.402 0 0 1-.492.22c-.547-.079-1.405-.239-2.225-.386-.206-.035-.457-.104-.635-.135l2.768 1.818c.19.129.25.267.13.47l-.172.295c-.127.216-.276.314-.524.157l-3.893-2.7c-.241-.162-.181-.331-.082-.5l.222-.383a.382.382 0 0 1 .429-.229c.8.113 2.205.382 3.283.567-.703-.824-1.643-1.88-2.142-2.507a.372.372 0 0 1 0-.477l.225-.386c.099-.166.217-.313.483-.178l4.316 1.984c.257.113.229.298.102.514z"/>
      <path id="path3" d="M64.662 56.27c-.156.313-.242.491-.433.811-.155.28-.344.54-.562.774-.807.834-1.783.568-3.003-.128-2.075-1.182-2.085-2.053-1.29-3.41.19-.314.317-.487.502-.775.184-.288.318-.314.457-.22l.232.132c.255.144.318.235.185.458-.134.222-.26.363-.474.73a2.74 2.74 0 0 0-.35.818c-.053.515.496.847 1.31 1.308.813.46 1.443.768 1.907.225.127-.163.243-.334.346-.514.216-.37.254-.517.407-.774.152-.257.238-.216.495-.069l.232.132c.16.088.185.203.038.501z"/>
      <path id="path4" fill-rule="evenodd" d="m67.026 52.106.222-.382c.067-.12.121-.28-.073-.376a.32.32 0 0 0-.124-.035l-4.986-.84a.43.43 0 0 0-.55.235l-.168.286a.425.425 0 0 0 .08.592l3.215 3.727c.051.07.114.13.185.179.092.06.178.063.317-.176l.185-.313c.14-.235.067-.354-.09-.524l-.666-.752c.111-.178.213-.353.33-.55.044-.079.092-.16.143-.246l.097-.164c.134-.226.246-.415.383-.67l1.061.194a.348.348 0 0 0 .439-.185zm-3.038.956-1.338-1.507 1.992.391c-.058.1-.113.19-.168.281-.055.09-.11.18-.168.28-.063.108-.122.212-.178.311l-.14.244z" clip-rule="evenodd"/>
    </g>
    <path id="logo-triangle" fill-rule="evenodd" d="M82.251.016h-26.34c-.936 0-1.834.367-2.495 1.02A3.456 3.456 0 0 0 52.383 3.5a3.217 3.217 0 0 0 .42 1.652L66.026 27.74a3.533 3.533 0 0 0 3.057 1.746 3.533 3.533 0 0 0 3.057-1.746L85.36 5.15a3.219 3.219 0 0 0 .422-1.651c0-.924-.37-1.81-1.033-2.464A3.552 3.552 0 0 0 82.25.015Z" clip-rule="evenodd"/>
    <path id="logo-chevron" fill-rule="evenodd" d="M64.293 32.275 47.953 4.338l-.286-.489c-1.47-2.417-4.134-3.878-6.991-3.833h-13.49C25.685.019 24.47 1.22 24.47 2.702a2.52 2.52 0 0 0 .318 1.273l16.458 28.118a8.408 8.408 0 0 1 .067 8.496l-14.3 24.45a2.52 2.52 0 0 0-.318 1.273c0 1.484 1.219 2.687 2.723 2.687h13.836c2.857.045 5.522-1.416 6.991-3.834l.286-.489 13.76-23.51.254-.436a7.88 7.88 0 0 0 1.027-4.028 8.23 8.23 0 0 0-1.122-4.179z" clip-rule="evenodd"/>
  </g>
</svg>
