<svg xmlns="http://www.w3.org/2000/svg" xmlns:xlink="http://www.w3.org/1999/xlink" viewBox="0 0 65 60"><defs><path id="f" d="M123.86 82.747c-10.093-4.404-22.021-3.487-31.196 2.569-9.175-6.056-21.103-6.973-31.196-2.386L60 83.481l.183 1.652c1.102 11.01 7.891 20.735 17.8 25.69-.55 11.01 4.588 21.837 13.396 28.26l1.285.917 1.284-.917c8.992-6.423 13.947-17.25 13.396-28.26 9.91-4.955 16.699-14.864 17.8-25.69l.183-1.652z"/><path id="g" d="M92.664 113.209c-4.22 0-8.441-.918-12.479-2.57-.734 10.277 3.854 20.37 12.479 26.792 8.624-6.239 13.212-16.515 12.478-26.791-4.037 1.651-8.258 2.569-12.478 2.569z"/><path id="h" d="M93.581 87.518c3.487 2.57 6.423 5.872 8.441 9.542 2.019 3.67 3.487 7.707 4.038 12.112 9.175-4.588 15.78-13.58 16.882-24.223-9.726-4.404-20.736-3.303-29.36 2.57z"/><path id="i" d="M91.746 87.518c-8.441-5.689-19.635-6.973-29.36-2.569 1.1 10.643 7.707 19.635 16.882 24.223.55-4.405 1.835-8.442 4.037-12.112s4.955-6.973 8.441-9.542z"/></defs><use fill="#fff" xlink:href="#f" transform="translate(-60 -80)"/><use fill="#f93549" xlink:href="#g" transform="translate(-60 -80)"/><use fill="#f93549" xlink:href="#h" transform="translate(-60 -80)"/><use fill="#f93549" xlink:href="#i" transform="translate(-60 -80)"/></svg>
